HIERARCHY
ROOT Hips
{
 OFFSET 0.000000 0.000000 0.000000
 CHANNELS 6 Xposition Yposition Zposition Yrotation Xrotation Zrotation
 JOINT Chest
 {
  OFFSET 0.000000 10.388337 0.005184
  CHANNELS 3 Yrotation Xrotation Zrotation
  JOINT Chest2
  {
   OFFSET 0.000000 10.458247 -0.010579
   CHANNELS 3 Yrotation Xrotation Zrotation
   JOINT Chest3
   {
    OFFSET 0.000000 10.415828 0.000000
    CHANNELS 3 Yrotation Xrotation Zrotation
    JOINT Chest4
    {
     OFFSET 0.000000 10.405206 0.000000
     CHANNELS 3 Yrotation Xrotation Zrotation
     JOINT Neck
     {
      OFFSET 0.000000 15.720090 0.000000
      CHANNELS 3 Yrotation Xrotation Zrotation
      JOINT Head
      {
       OFFSET 0.000000 9.732643 -0.022378
       CHANNELS 3 Yrotation Xrotation Zrotation
       End Site
       {
        OFFSET 0.000000 18.603619 -0.011814
       }
      }
     }
     JOINT RightCollar
     {
      OFFSET -3.167735 10.388953 0.000000
      CHANNELS 3 Yrotation Xrotation Zrotation
      JOINT RightShoulder
      {
       OFFSET -14.584825 0.000000 0.000000
       CHANNELS 3 Yrotation Xrotation Zrotation
       JOINT RightElbow
       {
        OFFSET 0.000000 -31.921689 0.000000
        CHANNELS 3 Yrotation Xrotation Zrotation
        JOINT RightWrist
        {
         OFFSET 0.000000 -25.835217 0.000000
         CHANNELS 3 Yrotation Xrotation Zrotation
         End Site
         {
          OFFSET 0.000000 -19.128920 0.000000
         }
        }
       }
      }
     }
     JOINT LeftCollar
     {
      OFFSET 3.167735 10.388953 0.000000
      CHANNELS 3 Yrotation Xrotation Zrotation
      JOINT LeftShoulder
      {
       OFFSET 14.584825 0.000000 0.000000
       CHANNELS 3 Yrotation Xrotation Zrotation
       JOINT LeftElbow
       {
        OFFSET 0.000000 -31.921689 0.000000
        CHANNELS 3 Yrotation Xrotation Zrotation
        JOINT LeftWrist
        {
         OFFSET 0.000000 -25.835217 0.000000
         CHANNELS 3 Yrotation Xrotation Zrotation
         End Site
         {
          OFFSET 0.000000 -19.128920 0.000000
         }
        }
       }
      }
     }
    }
   }
  }
 }
 JOINT RightHip
 {
  OFFSET -8.403278 -0.025659 -0.002592
  CHANNELS 3 Yrotation Xrotation Zrotation
  JOINT RightKnee
  {
   OFFSET 0.000000 -44.040977 0.002477
   CHANNELS 3 Yrotation Xrotation Zrotation
   JOINT RightAnkle
   {
    OFFSET 0.000000 -42.951162 0.004189
    CHANNELS 3 Yrotation Xrotation Zrotation
    JOINT RightToe
    {
     OFFSET 0.000000 -5.494238 12.197485
     CHANNELS 3 Yrotation Xrotation Zrotation
     End Site
     {
      OFFSET 0.000000 -1.538716 6.371628
     }
    }
   }
  }
 }
 JOINT LeftHip
 {
  OFFSET 8.403278 -0.025659 -0.002592
  CHANNELS 3 Yrotation Xrotation Zrotation
  JOINT LeftKnee
  {
   OFFSET 0.000000 -44.040977 0.002477
   CHANNELS 3 Yrotation Xrotation Zrotation
   JOINT LeftAnkle
   {
    OFFSET 0.000000 -42.951162 0.004189
    CHANNELS 3 Yrotation Xrotation Zrotation
    JOINT LeftToe
    {
     OFFSET 0.000000 -5.494238 12.197485
     CHANNELS 3 Yrotation Xrotation Zrotation
     End Site
     {
      OFFSET 0.000000 -1.538716 6.371628
     }
    }
   }
  }
 }
}
MOTION
Frames: 11
Frame Time: 0.008333
0.000000 92.319940 0.000000 0.000000 -5.767889 0.000000 0.000000 11.653876 0.000000 0.000000 -5.885988 0.000000 0.000000 -0.000000 0.000000 0.000000 -0.000000 0.000000 0.000000 12.528808 0.000000 0.000000 0.711711 0.000000 0.000000 -0.000000 0.000000 0.000000 0.000000 -90.000000 0.000000 -2.309063 0.000000 0.000000 2.309063 0.000000 0.000000 -0.000000 0.000000 0.000000 -0.000000 90.000000 0.000000 -2.309063 0.000000 0.000000 2.309063 0.000000 0.000000 8.520374 0.000000 0.000000 1.905768 0.000000 -0.000000 -4.658254 0.000000 0.000000 -0.000000 0.000000 0.000000 8.520374 0.000000 0.000000 1.905768 0.000000 -0.000000 -4.658254 0.000000 0.000000 -0.000000 0.000000
34.734541 93.104012 604.319786 124.548763 -1.894719 3.233095 2.020047 3.169312 0.645576 0.036198 0.072894 -0.001606 0.064699 0.130290 -0.002838 1.607614 3.238440 -0.026928 -11.858545 20.583973 2.575887 -22.267082 3.693887 7.996184 2.038656 8.045851 1.600572 0.354620 -1.910511 -6.635138 -8.210885 -3.506725 -4.110246 -1.076733 7.749075 -17.605184 -0.042982 5.648317 0.635844 -0.430645 -0.411539 5.798547 -1.360466 -5.379985 -8.185765 1.183274 -3.930454 0.827722 -5.136788 11.776112 -1.288110 2.544024 -11.675105 1.331379 -5.819551 1.866636 -2.706059 -0.115145 0.594330 -0.030260 3.335002 -1.659161 3.082523 13.967731 12.680325 3.018876 -15.157061 -7.115752 -7.031706 -0.330536 -0.621336 -0.144749
34.726296 93.106261 604.298766 124.581559 -1.890365 3.239524 2.021944 3.197162 0.637958 0.036534 0.073683 -0.001623 0.065291 0.131687 -0.002868 1.613765 3.255857 -0.026916 -11.813130 20.576620 2.594909 -22.190961 3.676743 8.019913 2.049965 8.053602 1.597013 0.325439 -1.897492 -6.710899 -8.211311 -3.545987 -4.053918 -1.071480 7.700603 -17.580207 -0.010778 5.645966 0.637202 -0.323471 -0.277524 5.868036 -1.279913 -5.448478 -8.281481 1.194525 -3.955729 0.824720 -5.150377 11.773912 -1.308451 2.553491 -11.675164 1.326889 -5.839691 1.866970 -2.689911 -0.129075 0.600535 -0.035761 3.325794 -1.664816 3.058317 13.964977 12.680308 3.021780 -15.165436 -7.115032 -7.013994 -0.332423 -0.622211 -0.147141
34.714997 93.108510 604.276697 124.583740 -1.871911 3.240629 2.058403 3.213505 0.636345 0.036905 0.074456 -0.001657 0.065948 0.133053 -0.002928 1.621436 3.272427 -0.027573 -11.767992 20.568648 2.613009 -22.115160 3.658320 8.042154 2.061799 8.058084 1.595101 0.302227 -1.878739 -6.782103 -8.213415 -3.582788 -4.007105 -1.067364 7.638013 -17.554333 0.020164 5.643068 0.639050 -0.217722 -0.144263 5.941211 -1.208191 -5.521530 -8.377664 1.197704 -3.975994 0.816097 -5.126865 11.761069 -1.322831 2.558935 -11.680680 1.324590 -5.851777 1.855280 -2.667449 -0.162618 0.622734 -0.048285 3.342173 -1.685582 3.038114 13.966881 12.685639 3.025242 -15.163776 -7.101309 -6.987368 -0.350849 -0.638811 -0.156645
34.700667 93.110766 604.251372 124.613736 -1.852726 3.248219 2.069750 3.228716 0.628119 0.037314 0.075169 -0.001706 0.066672 0.134315 -0.003015 1.631058 3.287064 -0.028892 -11.724396 20.560040 2.629247 -22.041713 3.638605 8.061547 2.075191 8.060974 1.600164 0.281108 -1.853937 -6.857590 -8.220639 -3.620064 -3.962104 -1.058636 7.565537 -17.530935 0.046588 5.639959 0.638025 -0.112219 -0.011111 6.017510 -1.142457 -5.598667 -8.471139 1.196914 -3.987193 0.800980 -5.128399 11.746524 -1.344640 2.552249 -11.690673 1.323434 -5.877262 1.863886 -2.652363 -0.178615 0.626621 -0.053564 3.325993 -1.712754 3.010292 13.970560 12.698766 3.028215 -15.182691 -7.105152 -6.963406 -0.353197 -0.644316 -0.158276
34.685190 93.112751 604.225196 124.654027 -1.835417 3.249590 2.075355 3.244970 0.626913 0.037744 0.075806 -0.001741 0.067434 0.135442 -0.003075 1.642136 3.299496 -0.029573 -11.683871 20.550249 2.641849 -21.972963 3.616488 8.075397 2.093825 8.068143 1.612138 0.253794 -1.828308 -6.943764 -8.230808 -3.658023 -3.911992 -1.045754 7.485023 -17.513892 0.071005 5.637639 0.629405 -0.008437 0.125466 6.097059 -1.085305 -5.682575 -8.559955 1.198295 -3.994586 0.782273 -5.138185 11.734774 -1.360153 2.533693 -11.700505 1.323706 -5.891494 1.872649 -2.641313 -0.177773 0.628962 -0.053983 3.295073 -1.742803 2.988666 13.970671 12.718464 3.028308 -15.193085 -7.114326 -6.938138 -0.355127 -0.646575 -0.158867
34.668980 93.114398 604.198078 124.704487 -1.823984 3.246477 2.076458 3.266496 0.629654 0.038219 0.076420 -0.001737 0.068277 0.136526 -0.003068 1.655168 3.310860 -0.028551 -11.646731 20.537947 2.650450 -21.909534 3.589514 8.083356 2.115526 8.081712 1.625543 0.216545 -1.805985 -7.039496 -8.237262 -3.695196 -3.851790 -1.034701 7.398944 -17.503007 0.090796 5.638101 0.618293 0.093744 0.263253 6.176200 -1.037485 -5.774767 -8.646185 1.204208 -4.003544 0.765897 -5.160173 11.730258 -1.371741 2.507065 -11.710771 1.323940 -5.895124 1.880609 -2.629381 -0.168631 0.630395 -0.052967 3.251813 -1.771807 2.970158 13.964579 12.745278 3.026326 -15.184473 -7.128686 -6.913226 -0.355360 -0.645191 -0.157739
34.650799 93.115788 604.168490 124.787167 -1.819882 3.250572 2.049896 3.296138 0.623137 0.038768 0.077101 -0.001692 0.069251 0.137729 -0.002986 1.670442 3.323202 -0.025618 -11.612288 20.522404 2.655770 -21.850462 3.556377 8.086667 2.133977 8.096924 1.637328 0.172272 -1.784510 -7.141447 -8.240485 -3.733495 -3.783210 -1.026436 7.310668 -17.493160 0.103432 5.640155 0.611698 0.194161 0.395584 6.251297 -0.993465 -5.870798 -8.732050 1.212629 -4.014724 0.752617 -5.217978 11.732580 -1.392789 2.476728 -11.724396 1.321272 -5.904137 1.904546 -2.616737 -0.148281 0.615867 -0.047934 3.174668 -1.801565 2.943466 13.956325 12.783466 3.023768 -15.185220 -7.161998 -6.892826 -0.339764 -0.630919 -0.148297
34.630832 93.116701 604.139836 124.850006 -1.810508 3.248305 2.048751 3.325034 0.622140 0.039372 0.077966 -0.001629 0.070322 0.139256 -0.002872 1.686084 3.339622 -0.021802 -11.579370 20.504071 2.658794 -21.793843 3.517911 8.086711 2.149056 8.108748 1.647392 0.124259 -1.761021 -7.241687 -8.246697 -3.775742 -3.715492 -1.019136 7.224010 -17.479233 0.112843 5.640734 0.610920 0.288689 0.519204 6.321647 -0.947978 -5.964278 -8.814677 1.222103 -4.030655 0.739582 -5.251504 11.732878 -1.407769 2.446535 -11.740567 1.318169 -5.892670 1.911313 -2.592682 -0.144655 0.619377 -0.050803 3.114031 -1.843099 2.923161 13.952564 12.833398 3.022683 -15.171882 -7.182938 -6.864548 -0.342736 -0.631780 -0.146889
34.609554 93.117240 604.110548 124.919339 -1.804085 3.245010 2.045492 3.358191 0.620915 0.040005 0.079032 -0.001556 0.071441 0.141139 -0.002739 1.700911 3.360719 -0.017449 -11.546863 20.484213 2.659793 -21.737586 3.476315 8.083471 2.162350 8.120151 1.653630 0.075693 -1.739092 -7.330319 -8.258816 -3.822090 -3.653238 -1.013577 7.140480 -17.460528 0.122250 5.641196 0.613133 0.376112 0.635369 6.387629 -0.896704 -6.053918 -8.892243 1.230352 -4.050470 0.726104 -5.289037 11.736275 -1.423017 2.419258 -11.757264 1.317401 -5.895692 1.916605 -2.569554 -0.142966 0.622563 -0.054082 3.044072 -1.887306 2.902245 13.953823 12.890980 3.025704 -15.160858 -7.208002 -6.836834 -0.345454 -0.632257 -0.145407
34.587383 93.117388 604.080520 124.990772 -1.801613 3.240491 2.042854 3.395042 0.621290 0.040666 0.080247 -0.001461 0.072611 0.143286 -0.002569 1.715425 3.385111 -0.012182 -11.513432 20.463199 2.658261 -21.679082 3.431940 8.075615 2.174665 8.133492 1.656018 0.029488 -1.722572 -7.407199 -8.282099 -3.867964 -3.595532 -1.011443 7.056775 -17.438672 0.131309 5.641606 0.612044 0.458463 0.748797 6.453599 -0.834979 -6.143115 -8.967528 1.236808 -4.071631 0.710507 -5.332003 11.743812 -1.438943 2.395261 -11.774447 1.318295 -5.905444 1.921052 -2.546979 -0.144658 0.625685 -0.057282 2.974612 -1.932162 2.883712 13.957444 12.956491 3.028869 -15.156220 -7.237832 -6.810910 -0.346373 -0.632374 -0.141195
